<svg viewBox="0 0 32.06 32.06" xmlns="http://www.w3.org/2000/svg"><rect fill="#5ecd80" height="32.06" rx="4" width="32.06"/><g fill="#f9ffff"><path d="m24.89 16.6v-1.14a.22.22 0 0 1 .22-.23h1.57a.22.22 0 0 0 .22-.23v-.8a.23.23 0 0 1 .37-.17l2.14 1.83a.22.22 0 0 1 0 .34l-2.14 1.8a.23.23 0 0 1 -.37-.17v-.81a.22.22 0 0 0 -.22-.23h-1.57a.22.22 0 0 1 -.22-.19z"/><path d="m7.17 16.6v-1.14a.22.22 0 0 0 -.17-.23h-1.62a.22.22 0 0 1 -.23-.23v-.8a.22.22 0 0 0 -.36-.2l-2.15 1.86a.23.23 0 0 0 0 .34l2.15 1.8a.22.22 0 0 0 .36-.17v-.81a.23.23 0 0 1 .23-.23h1.62a.22.22 0 0 0 .17-.19z"/><path d="m6.47 15.23h19.12v1.59h-19.12z"/><path d="m16.6 7.17h-1.14a.22.22 0 0 1 -.23-.17v-1.62a.22.22 0 0 0 -.23-.23h-.8a.22.22 0 0 1 -.2-.36l1.83-2.15a.23.23 0 0 1 .34 0l1.83 2.15a.22.22 0 0 1 -.17.36h-.81a.23.23 0 0 0 -.23.23v1.62a.22.22 0 0 1 -.19.17z"/><path d="m16.6 24.89h-1.14a.22.22 0 0 0 -.23.22v1.57a.22.22 0 0 1 -.22.22h-.81a.23.23 0 0 0 -.17.37l1.83 2.14a.22.22 0 0 0 .34 0l1.8-2.14a.23.23 0 0 0 -.17-.37h-.81a.22.22 0 0 1 -.23-.22v-1.57a.22.22 0 0 0 -.19-.22z"/><path d="m15.23 6.47h1.59v19.12h-1.59z"/><path d="m22.7 10.17-.81-.81a.21.21 0 0 1 0-.31l1.11-1.12a.23.23 0 0 0 0-.31l-.58-.57a.22.22 0 0 1 .14-.38l2.81-.23a.23.23 0 0 1 .24.24l-.22 2.81a.22.22 0 0 1 -.38.14l-.57-.57a.22.22 0 0 0 -.32 0l-1.12 1.11a.21.21 0 0 1 -.3 0z"/><path d="m10.17 22.7-.81-.81a.21.21 0 0 0 -.31 0l-1.12 1.11a.23.23 0 0 1 -.31 0l-.57-.58a.22.22 0 0 0 -.38.14l-.23 2.81a.23.23 0 0 0 .24.24l2.81-.22a.22.22 0 0 0 .14-.39l-.57-.57a.22.22 0 0 1 0-.32l1.11-1.11a.21.21 0 0 0 0-.3z"/><path d="m6.47 15.23h19.12v1.59h-19.12z" transform="matrix(.70710678 -.70710678 .70710678 .70710678 -6.64 16.03)"/><path d="m21.88 22.7.82-.81a.21.21 0 0 1 .31 0l1.11 1.11a.24.24 0 0 0 .32 0l.57-.58a.23.23 0 0 1 .38.14l.22 2.81a.22.22 0 0 1 -.24.24l-2.81-.22a.23.23 0 0 1 -.14-.38l.58-.57a.24.24 0 0 0 0-.32l-1.12-1.12a.23.23 0 0 1 0-.3z"/><path d="m9.35 10.17.82-.81a.23.23 0 0 0 0-.31l-1.11-1.12a.21.21 0 0 1 0-.31l.57-.57a.22.22 0 0 0 -.14-.38l-2.81-.23a.23.23 0 0 0 -.24.24l.23 2.81a.22.22 0 0 0 .38.14l.57-.57a.21.21 0 0 1 .31 0l1.07 1.11a.21.21 0 0 0 .35 0z"/><path d="m15.23 6.47h1.59v19.12h-1.59z" transform="matrix(.70710678 -.70710678 .70710678 .70710678 -6.64 16.03)"/></g><circle cx="16.03" cy="16.03" fill="#757070" r="3.3"/></svg>