<svg viewBox="0 0 59.87 13.8" xmlns="http://www.w3.org/2000/svg"><rect fill="#5a92d4" height="13.8" rx="6.9" width="59.87"/><path d="m26.18 9.11v-1.58h-1.15v-2.84h5.78v2.84h-1.17v1.58z" fill="#6b6966"/><path d="m30.44 5.07v2.08h-1.17v1.59h-2.71v-1.59h-1.16v-2.08h5m.75-.75h-6.5v3.58h1.16v1.59h4.19v-1.59h1.17v-3.58z" fill="#fff"/><path d="m33.88 9.11v-1.58h-1.16v-2.84h5.79v2.84h-1.17v1.58z" fill="#6b6966"/><path d="m38.13 5.07v2.08h-1.13v1.59h-2.75v-1.59h-1.15v-2.08h5m.75-.75h-6.5v3.58h1.15v1.59h4.21v-1.59h1.17v-3.58z" fill="#fff"/><path d="m41.57 9.11v-1.58h-1.16v-2.84h5.79v2.84h-1.17v1.58z" fill="#6b6966"/><path d="m45.83 5.07v2.08h-1.17v1.59h-2.66v-1.59h-1.21v-2.08h5m.75-.75h-6.54v3.58h1.2v1.59h4.21v-1.59h1.17v-3.58z" fill="#fff"/><path d="m49.26 9.11v-1.58h-1.15v-2.84h5.79v2.84h-1.18v1.58z" fill="#6b6966"/><path d="m53.52 5.07v2.08h-1.17v1.59h-2.71v-1.59h-1.16v-2.08h5m.75-.75h-6.5v3.58h1.16v1.59h4.21v-1.59h1.17v-3.58z" fill="#fff"/><path d="m15.53 8.49v-1.05h-.67v-2.13h4.1v2.13h-.67v1.05z" fill="#6b6966"/><path d="m18.58 5.68v1.39h-.66v1h-2v-1h-.67v-1.39h.7v.71h.61v-.71h.72v.71h.61v-.71h.7m.75-.75h-4.85v2.89h.67v1h3.51v-1h.66v-2.89z" fill="#fff"/><path d="m6.63 8.49v-1.05h-.67v-2.13h4.09v2.13h-.66v1.05z" fill="#6b6966"/><path d="m9.68 5.68v1.39h-.68v1h-2v-1h-.67v-1.39h.67v.71h.61v-.71h.72v.71h.67v-.71h.71m.75-.75h-4.88v2.89h.67v1h3.51v-1h.67v-2.89z" fill="#fff"/></svg>