<svg viewBox="0 0 37.77 37.77" xmlns="http://www.w3.org/2000/svg"><circle cx="18.89" cy="18.89" fill="#5098d9" r="18.89"/><g fill="#f9ffff"><path d="m19.8 14.46h-1.8a.45.45 0 0 1 -.44-.4l-.44-3.86a.45.45 0 0 0 -.44-.4h-2.17a.44.44 0 0 1 -.34-.73l4.38-5.13a.43.43 0 0 1 .67 0l4.38 5.13a.44.44 0 0 1 -.34.73h-2.14a.45.45 0 0 0 -.44.4l-.44 3.86a.45.45 0 0 1 -.44.4z"/><path d="m18 23.32h1.8a.44.44 0 0 1 .44.39l.44 3.86a.45.45 0 0 0 .44.4h2.14a.44.44 0 0 1 .34.73l-4.38 5.13a.43.43 0 0 1 -.67 0l-4.38-5.13a.44.44 0 0 1 .34-.73h2.14a.45.45 0 0 0 .44-.4l.44-3.86a.44.44 0 0 1 .47-.39z"/><path d="m34 18v1.8a.45.45 0 0 1 -.39.44l-3.87.44a.44.44 0 0 0 -.39.44v2.14a.44.44 0 0 1 -.73.34l-5.14-4.38a.43.43 0 0 1 0-.67l5.14-4.38a.44.44 0 0 1 .73.34v2.14a.44.44 0 0 0 .39.44l3.87.44a.45.45 0 0 1 .39.47z"/><path d="m3.78 19.8v-1.8a.45.45 0 0 1 .4-.44l3.82-.47a.45.45 0 0 0 .4-.44v-2.14a.44.44 0 0 1 .73-.34l5.13 4.38a.43.43 0 0 1 0 .67l-5.09 4.38a.44.44 0 0 1 -.73-.34v-2.14a.45.45 0 0 0 -.4-.44l-3.86-.44a.45.45 0 0 1 -.4-.44z"/></g></svg>