<svg id="SvgjsSvg1001" width="288" height="288" xmlns="http://www.w3.org/2000/svg" version="1.1" xmlns:xlink="http://www.w3.org/1999/xlink" xmlns:svgjs="http://svgjs.com/svgjs"><defs id="SvgjsDefs1002"></defs><g id="SvgjsG1008" transform="matrix(0.9167,0,0,0.9167,11.998375100708017,11.998375100708017)"><svg xmlns="http://www.w3.org/2000/svg" viewBox="0 0 37.77 37.77" width="288" height="288"><circle cx="18.89" cy="18.89" r="18.89" fill="#ffbf66" class="color5098d9 svgShape"></circle><g fill="#66ccff" class="colorf9ffff svgShape"><path d="M19.8 14.46h-1.8a.45.45 0 01-.44-.4l-.44-3.86a.45.45 0 00-.44-.4h-2.17a.44.44 0 01-.34-.73l4.38-5.13a.43.43 0 01.67 0l4.38 5.13a.44.44 0 01-.34.73h-2.14a.45.45 0 00-.44.4l-.44 3.86a.45.45 0 01-.44.4zM18 23.32h1.8a.44.44 0 01.44.39l.44 3.86a.45.45 0 00.44.4h2.14a.44.44 0 01.34.73l-4.38 5.13a.43.43 0 01-.67 0l-4.38-5.13a.44.44 0 01.34-.73h2.14a.45.45 0 00.44-.4l.44-3.86a.44.44 0 01.47-.39zM34 18v1.8a.45.45 0 01-.39.44l-3.87.44a.44.44 0 00-.39.44v2.14a.44.44 0 01-.73.34l-5.14-4.38a.43.43 0 010-.67l5.14-4.38a.44.44 0 01.73.34v2.14a.44.44 0 00.39.44l3.87.44a.45.45 0 01.39.47zM3.78 19.8v-1.8a.45.45 0 01.4-.44l3.82-.47a.45.45 0 00.4-.44v-2.14a.44.44 0 01.73-.34l5.13 4.38a.43.43 0 010 .67l-5.09 4.38a.44.44 0 01-.73-.34v-2.14a.45.45 0 00-.4-.44l-3.86-.44a.45.45 0 01-.4-.44z" fill="#ffffff" class="color000 svgShape"></path></g></svg></g></svg>