<svg viewBox="0 0 27.33 18.09" xmlns="http://www.w3.org/2000/svg"><rect fill="#68ca75" height="18.09" rx="4" width="27.33"/><g fill="#fffefd"><path d="m14.37 13.78h1.21a.45.45 0 0 0 .45-.44v-8.58a.45.45 0 0 0 -.45-.45h-1.21a.44.44 0 0 0 -.34.16l-2.35 2.74a.42.42 0 0 1 -.33.16h-1.23a.45.45 0 0 0 -.45.44v2.47a.45.45 0 0 0 .45.45h1.23a.41.41 0 0 1 .33.15l2.32 2.74a.44.44 0 0 0 .37.16z"/><rect height=".7" rx=".35" width="4.26" x="5.67" y="8.7"/><rect height=".7" rx=".35" width="4.52" x="17.13" y="8.86"/><rect height=".7" rx=".35" transform="matrix(.94540487 -.32589818 .32589818 .94540487 -.86 6.64)" width="4.52" x="17.12" y="5.55"/><rect height="4.52" rx=".35" transform="matrix(.32589818 -.94540487 .94540487 .32589818 1.22 26.77)" width=".7" x="19.03" y="10.27"/></g></svg>