<svg viewBox="0 0 28.34 27.85" xmlns="http://www.w3.org/2000/svg" xmlns:xlink="http://www.w3.org/1999/xlink"><clipPath id="a"><path d="m14.17 0c-6.64 0-12 2.32-12 5.18v17.49c0 2.86 5.39 5.18 12 5.18s12-2.32 12-5.18v-17.49c.03-2.86-5.35-5.18-12-5.18z"/></clipPath><g clip-path="url(#a)"><path d="m14.16 0c-6.65 0-12 2.32-12 5.18v17.49c0 2.86 5.38 5.18 12 5.18s12-2.32 12-5.18v-17.49c.03-2.86-5.36-5.18-12-5.18z" fill="#64ca79"/><g fill="none" stroke="#fff" stroke-miterlimit="10" stroke-width="2"><path d="m27.34 5.37c0 3-5.89 5.37-13.17 5.37s-13.17-2.4-13.17-5.37"/><path d="m1 11.24c0 3 5.9 5.37 13.17 5.37s13.17-2.41 13.17-5.37"/><path d="m1 17.1c0 3 5.9 5.37 13.17 5.37s13.17-2.4 13.17-5.37"/></g></g></svg>