<svg viewBox="0 0 16.69 16.69" xmlns="http://www.w3.org/2000/svg"><rect fill="#4d98d6" height="16.69" rx="1" width="16.69"/><g fill="#f9ffff"><path d="m10.56 4.4v-1.15a.22.22 0 0 1 .22-.25h1.57a.22.22 0 0 0 .22-.22v-.78a.23.23 0 0 1 .37-.17l2.15 1.83a.23.23 0 0 1 0 .34l-2.15 1.82a.23.23 0 0 1 -.37-.17v-.81a.22.22 0 0 0 -.22-.22h-1.57a.22.22 0 0 1 -.22-.22z"/><path d="m10.56 13.45v-1.15a.22.22 0 0 1 .22-.22h1.57a.22.22 0 0 0 .22-.22v-.86a.23.23 0 0 1 .37-.17l2.15 1.83a.23.23 0 0 1 0 .34l-2.15 1.83a.23.23 0 0 1 -.37-.17v-.81a.22.22 0 0 0 -.22-.22h-1.57a.22.22 0 0 1 -.22-.18z"/><path d="m6.13 4.4v-1.15a.22.22 0 0 0 -.22-.25h-1.57a.22.22 0 0 1 -.22-.22v-.78a.23.23 0 0 0 -.37-.17l-2.14 1.82a.22.22 0 0 0 0 .34l2.14 1.83a.23.23 0 0 0 .37-.17v-.81a.22.22 0 0 1 .22-.22h1.57a.22.22 0 0 0 .22-.22z"/><path d="m6.13 13.45v-1.15a.22.22 0 0 0 -.22-.22h-1.57a.22.22 0 0 1 -.22-.22v-.86a.23.23 0 0 0 -.37-.17l-2.14 1.87a.22.22 0 0 0 0 .34l2.14 1.83a.23.23 0 0 0 .37-.17v-.81a.22.22 0 0 1 .22-.22h1.57a.22.22 0 0 0 .22-.22z"/><path d="m6.19 3.15 4.31 8.85a.23.23 0 0 0 .2.13h.58a.21.21 0 0 1 .22.22v1.15a.22.22 0 0 1 -.22.22h-.58a.23.23 0 0 1 -.2-.13l-4.31-8.85a.22.22 0 0 0 -.19-.12h-.6a.22.22 0 0 1 -.22-.22v-1.15a.22.22 0 0 1 .22-.25h.6a.2.2 0 0 1 .19.15z"/><path d="m10.49 3.15-4.31 8.85a.23.23 0 0 1 -.2.13h-.58a.21.21 0 0 0 -.22.22v1.15a.22.22 0 0 0 .22.22h.6a.23.23 0 0 0 .2-.13l4.31-8.8a.21.21 0 0 1 .19-.12h.6a.22.22 0 0 0 .22-.22v-1.2a.22.22 0 0 0 -.24-.25h-.6a.2.2 0 0 0 -.19.15z"/></g></svg>