<svg viewBox="0 0 14.9 14.9" xmlns="http://www.w3.org/2000/svg"><path d="m7.45 0a7.45 7.45 0 0 0 -.2 14.9h.4a7.45 7.45 0 0 0 -.2-14.9zm-.19.41v3.51h-2.69a9.28 9.28 0 0 1 .56-1.52c.57-1.18 1.33-1.89 2.13-1.99zm.39 0c.79.1 1.55.81 2.12 2a8.44 8.44 0 0 1 .56 1.52h-2.68zm-1.6.12a4.89 4.89 0 0 0 -1.27 1.7 9.29 9.29 0 0 0 -.61 1.69h-2.83a7.1 7.1 0 0 1 4.71-3.39zm2.8 0a7.05 7.05 0 0 1 4.71 3.39h-2.82a9.29 9.29 0 0 0 -.62-1.69 4.89 4.89 0 0 0 -1.27-1.7zm-7.72 3.78h3a14.28 14.28 0 0 0 -.35 3h-3.38a7.1 7.1 0 0 1 .73-3zm3.34 0h2.79v3h-3.14a14.2 14.2 0 0 1 .35-3zm3.18 0h2.78a14.2 14.2 0 0 1 .35 3h-3.13zm3.18 0h2.95a6.94 6.94 0 0 1 .72 3h-3.33a14.3 14.3 0 0 0 -.34-3zm-10.43 3.34h3.33a14.2 14.2 0 0 0 .34 2.94h-2.94a7.09 7.09 0 0 1 -.73-2.94zm3.72 0h3.14v2.94h-2.79a14.1 14.1 0 0 1 -.35-2.94zm3.53 0h3.13a13.46 13.46 0 0 1 -.35 2.94h-2.78zm3.52 0h3.33a6.93 6.93 0 0 1 -.72 2.94h-2.95a13.55 13.55 0 0 0 .34-2.94zm-9.83 3.35h2.83a9.29 9.29 0 0 0 .61 1.69 5 5 0 0 0 1.28 1.71 7.06 7.06 0 0 1 -4.72-3.4zm3.23 0h2.69v3.5c-.8-.1-1.56-.83-2.13-2a8.83 8.83 0 0 1 -.56-1.5zm3.08 0h2.68a8.06 8.06 0 0 1 -.56 1.51c-.57 1.18-1.33 1.91-2.12 2zm3.09 0h2.83a7.1 7.1 0 0 1 -4.73 3.4 4.92 4.92 0 0 0 1.28-1.71 9.29 9.29 0 0 0 .62-1.69z" fill="#73c286"/></svg>