<svg viewBox="0 0 21.88 26.36" xmlns="http://www.w3.org/2000/svg" xmlns:xlink="http://www.w3.org/1999/xlink"><clipPath id="a" transform="translate(0 -.5)"><path d="m10.72 10.79-9.67 10.79v-21.58z"/></clipPath><clipPath id="b" transform="translate(0 -.5)"><path d="m11.16 10.79 9.67 10.79v-21.58z"/></clipPath><g fill="#61cb7a"><g clip-path="url(#a)"><path d="m11.51 8.24a2.63 2.63 0 1 1 -2.63 2.63 2.63 2.63 0 0 1 2.63-2.63m0-2a4.63 4.63 0 1 0 4.63 4.63 4.63 4.63 0 0 0 -4.63-4.63z" transform="translate(0 -.5)"/><path d="m11.51 5.25a5.62 5.62 0 1 1 -5.62 5.62 5.62 5.62 0 0 1 5.62-5.62m0-2a7.62 7.62 0 1 0 7.62 7.62 7.62 7.62 0 0 0 -7.62-7.62z" transform="translate(0 -.5)"/><path d="m11.51 2.5a8.37 8.37 0 1 1 -8.37 8.37 8.37 8.37 0 0 1 8.37-8.37m0-2a10.37 10.37 0 1 0 10.37 10.37 10.37 10.37 0 0 0 -10.37-10.37z" transform="translate(0 -.5)"/></g><g clip-path="url(#b)"><path d="m10.37 8.24a2.63 2.63 0 1 1 -2.63 2.63 2.64 2.64 0 0 1 2.63-2.63m0-2a4.63 4.63 0 1 0 4.63 4.63 4.63 4.63 0 0 0 -4.64-4.63z" transform="translate(0 -.5)"/><path d="m10.37 5.25a5.62 5.62 0 1 1 -5.62 5.62 5.63 5.63 0 0 1 5.62-5.62m0-2a7.62 7.62 0 1 0 7.63 7.62 7.62 7.62 0 0 0 -7.63-7.62z" transform="translate(0 -.5)"/><path d="m10.37 2.5a8.37 8.37 0 1 1 -8.37 8.37 8.38 8.38 0 0 1 8.37-8.37m0-2a10.37 10.37 0 1 0 10.38 10.37 10.37 10.37 0 0 0 -10.38-10.37z" transform="translate(0 -.5)"/></g><path d="m10.94 9.44a1.1 1.1 0 0 1 1.1 1.1v15.82a0 0 0 0 1 0 0h-2.2a0 0 0 0 1 0 0v-15.82a1.1 1.1 0 0 1 1.1-1.1z"/></g></svg>